<?xml version="1.0" standalone="no"?>
<!DOCTYPE svg PUBLIC "-//W3C//DTD SVG 20010904//EN"
 "http://www.w3.org/TR/2001/REC-SVG-20010904/DTD/svg10.dtd">
<svg version="1.0" xmlns="http://www.w3.org/2000/svg"
 width="1920.000000pt" height="1920.000000pt" viewBox="0 0 1920.000000 1920.000000"
 preserveAspectRatio="xMidYMid meet">
<metadata>
Created by potrace 1.14, written by Peter Selinger 2001-2017
</metadata>
<g transform="translate(0.000000,1920.000000) scale(0.100000,-0.100000)"
fill="#000000" stroke="none">
<path d="M13530 17054 c-690 -47 -1271 -243 -1820 -615 -183 -124 -323 -241
-506 -423 -305 -306 -501 -582 -689 -968 -173 -358 -272 -695 -332 -1133 -15
-108 -17 -397 -23 -2970 -5 -2686 -7 -2854 -24 -2925 -69 -292 -189 -513 -386
-711 -152 -153 -293 -246 -488 -323 -277 -110 -607 -125 -897 -41 -380 110
-713 394 -881 749 -90 190 -123 332 -131 551 -9 252 29 437 131 651 188 393
518 660 950 771 94 24 121 26 389 30 l287 5 0 1085 0 1085 -332 -5 c-341 -5
-460 -15 -686 -58 -572 -108 -1117 -359 -1577 -725 -222 -177 -505 -476 -666
-704 -353 -499 -562 -1036 -646 -1660 -22 -168 -25 -635 -5 -805 103 -864 485
-1635 1098 -2214 994 -940 2456 -1233 3724 -748 1309 502 2197 1694 2300 3092
6 83 10 559 10 1168 l0 1027 38 -16 c66 -30 374 -132 472 -158 294 -76 535
-106 928 -113 l302 -6 0 1076 0 1075 -282 5 c-241 4 -296 8 -368 25 -306 75
-537 209 -746 432 -129 137 -257 363 -309 545 -46 159 -58 262 -52 445 8 234
41 369 142 575 190 391 545 665 986 761 119 26 418 27 539 1 295 -63 515 -182
725 -392 129 -128 192 -215 267 -363 98 -195 134 -348 149 -637 6 -115 13
-225 15 -242 6 -40 -43 -39 489 -13 226 11 658 31 960 44 303 14 583 28 623
32 l73 6 -6 101 c-21 385 -28 467 -46 592 -105 737 -440 1419 -963 1962 -564
587 -1328 963 -2146 1057 -133 16 -482 27 -590 20z"/>
<path d="M5392 16913 c-104 -37 20 170 -2199 -3673 -1131 -1961 -2065 -3587
-2075 -3615 -20 -58 -22 -113 -7 -170 13 -47 4130 -7185 4172 -7232 16 -18 54
-45 85 -60 l57 -28 4175 0 4175 0 57 28 c31 15 69 42 85 60 42 47 4159 7185
4172 7232 15 57 13 112 -7 170 -15 41 -1238 2174 -1261 2197 -5 6 -595 -16
-652 -25 -12 -1 152 -293 637 -1134 l653 -1131 -1966 -3406 -1966 -3406 -3927
0 -3927 0 -1966 3406 -1966 3406 1963 3402 1964 3401 1950 3 1951 2 58 83 c77
110 237 309 335 418 l79 89 -2303 -1 c-2031 0 -2308 -2 -2346 -16z"/>
</g>
</svg>
